# xmcd
#
# Track frame offsets:
#	150
#	14337
#	30393
#	45225
#	61651
#	81198
#	100906
#	122587
#	142148
#	160010
#	182412
#	202739
#	220729
#	237894
#	259156
#	274115
#	297461
#	313519
#
# Disc length: 4369 seconds
#
# Revision: 0
# Processed by: cddbd v1.4PL0 Copyright (c) Steve Scherf et al.
# Submitted via: dBpowerAMP V4.0
#
DISCID=ee110f12
DTITLE=beckham - tipi
DYEAR=1900
DGENRE=
TTITLE0=a
TTITLE1=s
TTITLE2=d
TTITLE3=f
TTITLE4=g
TTITLE5=h
TTITLE6=j
TTITLE7=k
TTITLE8=l
TTITLE9=ñ
TTITLE10=q
TTITLE11=w
TTITLE12=e
TTITLE13=r
TTITLE14=t
TTITLE15=y
TTITLE16=u
TTITLE17=i
EXTD=
EXTT0=
EXTT1=
EXTT2=
EXTT3=
EXTT4=
EXTT5=
EXTT6=
EXTT7=
EXTT8=
EXTT9=
EXTT10=
EXTT11=
EXTT12=
EXTT13=
EXTT14=
EXTT15=
EXTT16=
EXTT17=
PLAYORDER=
